<svg xmlns="http://www.w3.org/2000/svg" xmlns:xlink="http://www.w3.org/1999/xlink" version="1.1" x="0px" y="0px" viewBox="0 0 70 70" style="enable-background:new 0 0 70 80;" xml:space="preserve"><g transform="translate(0, -4)" fill="#FFFFFF"><path d="M54.3,47.9c-0.1-7.5-6.1-11.7-12.5-14c0-5.6-0.1-11.2-0.1-16.7c2,0.3,3.9,0.9,5.7,1.8c1.7,0.8,3.1-1.7,1.5-2.5  c-2.3-1.1-4.7-1.8-7.2-2.2c0-1,0-1.9,0-2.9c0-1.3-1.9-1.3-2,0c0,0.9,0,1.8,0,2.7c-1.8-0.1-3.5,0-5.2,0.3c-0.4-0.8-1.8-0.6-1.8,0.4  c-2.2,0.6-4.2,1.7-6,3.1c-4.9,4-7.4,12.3-0.2,15.2c1.8,0.8,3.7,1.2,5.7,1.6c-0.1,2-0.1,4-0.2,5.9c-0.1,5.3-0.5,10.7-0.6,16  c-0.3-0.1-0.5-0.1-0.8-0.2c-6.3-1.5-11.1-6.3-12.1-12.7c-0.2-1.5-2.6-1.1-2.6,0.4c0.2,8.7,7.4,14.4,15.4,15.8c0,2.2,0,4.4,0,6.6  c0,1.4,2,1.4,2.1,0c0.2-2.1,0.3-4.2,0.3-6.3c1.7,0.1,3.5,0.1,5.4-0.1c0,2.7,0.1,5.4,0.3,8.1c0.1,1.6,2.4,1.6,2.5,0  c0.2-2.8,0.3-5.7,0.3-8.5C48.5,58.6,54.4,55.2,54.3,47.9z M39.6,16.9c0,5.4-0.1,10.8-0.1,16.2c-1.6-0.5-3.3-0.9-4.8-1.2  c-0.2,0-0.4-0.1-0.6-0.1c0.1-4.8,0.2-9.7,0.3-14.5C36.1,16.9,37.8,16.8,39.6,16.9z M24.8,27.9c-1.6-3.2,2.8-7.3,5.1-8.7  c0.8-0.5,1.7-0.9,2.6-1.3c-0.1,4.5-0.2,9.1-0.4,13.6C29.3,31.1,26,30.4,24.8,27.9z M33.8,57.1c0.1-5.5,0-10.9,0.1-16.3  c0-1.9,0.1-3.7,0.1-5.6c1.8,0.3,3.6,0.7,5.4,1.2c0,1.2,0,2.3,0,3.5c0,5.7-0.3,11.5-0.3,17.2C37.2,57.2,35.4,57.2,33.8,57.1z   M49.8,52.6c-1.5,2.2-4.4,3.4-7.7,4.1c-0.1-5.6-0.3-11.2-0.3-16.8c0-0.9,0-1.8,0-2.7c0.2,0.1,0.5,0.2,0.7,0.3  C47.8,39.8,54.1,46.5,49.8,52.6z"/></g></svg>